<?xml version="1.0" encoding="UTF-8"?>
<svg width="1920px" height="1135px" viewBox="0 0 1920 1135" version="1.1" xmlns="http://www.w3.org/2000/svg" xmlns:xlink="http://www.w3.org/1999/xlink">
    <!-- Generator: Sketch 51.3 (57544) - http://www.bohemiancoding.com/sketch -->
    <title>Group 25</title>
    <desc>Created with Sketch.</desc>
    <defs></defs>
    <g id="Page-1" stroke="none" stroke-width="1" fill="none" fill-rule="evenodd">
        <g id="Landing">
            <g id="Group-25" transform="translate(-261.000000, -101.000000)">
                <rect id="Rectangle-6" fill="#FFFEFE" x="261" y="101" width="1913" height="1135"></rect>
                <g id="Group-10" transform="translate(0.000000, 824.000000)">
                    <path d="M317.853549,4.53099267 L355.509501,79.445677 C360.470206,89.314759 356.49118,101.336677 346.622098,106.297382 C343.835146,107.698247 340.759166,108.427829 337.639947,108.427829 L262.725262,108.427829 C251.679567,108.427829 242.725262,99.4735236 242.725262,88.4278286 C242.725262,85.3372721 243.441502,82.2887631 244.817769,79.5215571 L282.076502,4.60687277 C286.9953,-5.28316286 299.000231,-9.31314727 308.890267,-4.39434934 C312.764942,-2.46728376 315.910065,0.664526005 317.853549,4.53099267 Z" id="Rectangle-4" fill="#FC5700" transform="translate(300.147498, 57.147541) rotate(353.000000) translate(-300.147498, -57.147541) "></path>
                    <rect id="Rectangle-4" fill="#F57C00" opacity="0.900000036" transform="translate(210.437278, 239.437278) rotate(-19.000000) translate(-210.437278, -239.437278) " x="44.8802999" y="73.8802999" width="331.113957" height="331.113957" rx="100"></rect>
                </g>
                <g id="Group-11" transform="translate(1227.000000, 0.000000)">
                    <path d="M125.575256,210.621583 L157.167578,273.472972 C167.088989,293.211136 159.130938,317.254972 139.392774,327.176383 C133.818869,329.978112 127.666908,331.437275 121.428471,331.437275 L58.5770822,331.437275 C36.4856922,331.437275 18.5770822,313.528665 18.5770822,291.437275 C18.5770822,285.256162 20.0095615,279.159144 22.762095,273.624732 L54.0211614,210.773343 C63.8587572,190.993272 87.8686203,182.933303 107.648692,192.770899 C115.398043,196.62503 121.688288,202.88865 125.575256,210.621583 Z" id="Rectangle-4" fill="#FC5700" transform="translate(90.007125, 260.007167) rotate(342.000000) translate(-90.007125, -260.007167) "></path>
                    <path d="M270.787995,27.023054 C453.882465,-95.5163003 1136.92957,231.418739 1118.27797,353.780757 C1099.62637,476.142775 1023.95832,983.985896 839.507745,1002.97131 C655.057174,1021.95672 220.080256,858.458884 86.0349085,694.089036 C-48.0104394,529.719188 87.6935241,149.562408 270.787995,27.023054 Z" id="Rectangle-3" fill="#F57C00" opacity="0.900000036"></path>
                </g>
            </g>
        </g>
    </g>
</svg>